# xmcd
#
# Track frame offsets:
#	150
#	10193
#	50212
#	60680
#	66594
#	75835
#	99206
#	113416
#	135632
#	159230
#	177544
# Disc length: 2622 seconds
# Revision: 1
# Processed by: cddbd v1.5.2PL0 Copyright (c) Steve Scherf et al.
#
# Submitted via: libkcddb 0.31
#
DISCID=870a3c0b
DTITLE=James Brown - Feel The Groove [CD 1)
DYEAR=2006
DGENRE=Funk
TTITLE0=Introduction/Give It Up Or Turn It Loose
TTITLE1=It's A Man's, Man's, Man's World
TTITLE2=Papa's Got A Brand New Bag
TTITLE3=Hot Pants
TTITLE4=I Can't Stand Myself (When You Touch Me)
TTITLE5=It's Too Funky In Here
TTITLE6=Get On The Good Foot
TTITLE7=Jam (1980)
TTITLE8=Body Heat
TTITLE9=Doing It To Death
TTITLE10=Medley: The Payback/It's Too Funky In Here
EXTD=Publisher: Vintage Vinyl
EXTT0=
EXTT1=
EXTT2=
EXTT3=
EXTT4=
EXTT5=
EXTT6=
EXTT7=
EXTT8=
EXTT9=
EXTT10=
PLAYORDER=
